<svg xmlns="http://www.w3.org/2000/svg" viewBox="0 0 65 65"><defs><style>.cls-1{fill:#01dadc;}.cls-2{fill:#ffe471;}.cls-3{fill:#73ef93;}.cls-4{fill:#ffd8a4;}.cls-5{fill:none;stroke:#000;stroke-miterlimit:10;}</style></defs><title>Asset 21</title><g id="Layer_2" data-name="Layer 2"><g id="Layer_2-2" data-name="Layer 2"><rect class="cls-1" x="49.9" y="17.23" width="9.79" height="2.94" rx="1.46" ry="1.46"/><rect class="cls-1" x="21.12" y="10.15" width="9.79" height="2.94" rx="1.46" ry="1.46"/><rect class="cls-1" x="11.19" y="16.15" width="12.73" height="2.94" rx="1.46" ry="1.46"/><circle class="cls-2" cx="42.79" cy="14.04" r="3.92"/><path class="cls-3" d="M57.06,40.79a2.44,2.44,0,0,0,.3-1.18,2,2,0,1,0-3.89,0,2.44,2.44,0,0,0,.3,1.18,2.5,2.5,0,1,0,3.28,0Z"/><path class="cls-3" d="M13.81,38.54A3.14,3.14,0,0,0,14.2,37a2.7,2.7,0,0,0-2.5-2.86A2.7,2.7,0,0,0,9.2,37a3.14,3.14,0,0,0,.39,1.52,3.21,3.21,0,1,0,4.22,0Z"/><rect class="cls-4" x="17.25" y="51.83" width="33.79" height="2.17"/><path class="cls-4" d="M36,20.86,18.13,28.25a.35.35,0,0,0,.13.67H54a.35.35,0,0,0,.13-.67L36.26,20.86A.35.35,0,0,0,36,20.86Z"/><rect class="cls-4" x="12.93" y="54" width="38.99" height="2.17"/><rect class="cls-4" x="18.98" y="33.64" width="1.73" height="14.73"/><rect class="cls-4" x="45.84" y="33.64" width="1.73" height="14.73"/><rect class="cls-4" x="37.18" y="33.64" width="1.73" height="14.73"/><rect class="cls-4" x="27.65" y="33.64" width="1.73" height="14.73"/></g><g id="Слой_1" data-name="Слой 1"><rect class="cls-5" x="48.92" y="16.25" width="9.79" height="2.94" rx="1.46" ry="1.46"/><rect class="cls-5" x="20.14" y="9.17" width="9.79" height="2.94" rx="1.46" ry="1.46"/><rect class="cls-5" x="9.92" y="15.17" width="12.73" height="2.94" rx="1.46" ry="1.46"/><circle class="cls-5" cx="41.32" cy="12.57" r="4.41"/><path d="M40.21,13.36a2.52,2.52,0,0,1,2.49-2.49.5.5,0,0,0,0-1,3.53,3.53,0,0,0-3.49,3.49.5.5,0,0,0,1,0Z"/><path class="cls-5" d="M56.06,39.79a2.44,2.44,0,0,0,.3-1.18,2,2,0,1,0-3.89,0,2.44,2.44,0,0,0,.3,1.18,2.5,2.5,0,1,0,3.28,0Z"/><rect x="53.94" y="41.17" width="0.98" height="6"/><rect x="10.29" y="40.17" width="0.98" height="6"/><path class="cls-5" d="M12.81,37.54A3.14,3.14,0,0,0,13.2,36a2.7,2.7,0,0,0-2.5-2.86A2.7,2.7,0,0,0,8.2,36a3.14,3.14,0,0,0,.39,1.52,3.21,3.21,0,1,0,4.22,0Z"/><circle class="cls-5" cx="32.5" cy="32.5" r="32"/><path class="cls-5" d="M32.16,18.94,14.3,26.33a.35.35,0,0,0,.13.67H50.16a.35.35,0,0,0,.13-.67L32.43,18.94A.35.35,0,0,0,32.16,18.94Z"/><rect class="cls-5" x="15.52" y="26.91" width="33.79" height="1.73"/><rect class="cls-5" x="15.52" y="50.97" width="33.79" height="2.17"/><rect class="cls-5" x="12.92" y="53.13" width="38.99" height="2.17"/><rect class="cls-5" x="18.12" y="32.77" width="1.73" height="14.73"/><rect class="cls-5" x="16.38" y="31.04" width="5.2" height="1.73"/><rect class="cls-5" x="16.38" y="47.5" width="5.2" height="1.73"/><rect class="cls-5" x="44.97" y="32.77" width="1.73" height="14.73"/><rect class="cls-5" x="43.24" y="31.04" width="5.2" height="1.73"/><rect class="cls-5" x="43.24" y="47.5" width="5.2" height="1.73"/><rect class="cls-5" x="36.31" y="32.77" width="1.73" height="14.73"/><rect class="cls-5" x="34.58" y="31.04" width="5.2" height="1.73"/><rect class="cls-5" x="34.58" y="47.5" width="5.2" height="1.73"/><rect class="cls-5" x="26.78" y="32.77" width="1.73" height="14.73"/><rect class="cls-5" x="25.05" y="31.04" width="5.2" height="1.73"/><rect class="cls-5" x="25.05" y="47.5" width="5.2" height="1.73"/></g></g></svg>