<svg id="Слой_1" data-name="Слой 1" xmlns="http://www.w3.org/2000/svg" viewBox="0 0 123 73"><defs><style>.cls-1{fill:#01dadc;}.cls-2{fill:#c0ecec;}</style></defs><title>Монтажная область 9</title><path class="cls-1" d="M118.73,10.73l-59.86,58H62.4L4.51,10.81C2.23,8.53-1.31,12.07,1,14.34l57.9,57.9a2.54,2.54,0,0,0,3.54,0l59.86-58c2.32-2.24-1.22-5.78-3.54-3.54Z"/><path class="cls-2" d="M118.73.73,58.87,58.78H62.4L4.51.89C2.23-1.39-1.31,2.14,1,4.42l57.9,57.9a2.54,2.54,0,0,0,3.54,0L122.27,4.27C124.58,2,121-1.51,118.73.73Z"/></svg>