<svg xmlns="http://www.w3.org/2000/svg" viewBox="0 0 65 65"><defs><style>.cls-1,.cls-2{fill:none;stroke-miterlimit:10;}.cls-1{stroke:#000;}.cls-2{stroke:#1d1d1b;}.cls-3{fill:#1d1d1b;}</style></defs><title>Asset 10</title><g id="Layer_2" data-name="Layer 2"><g id="Слой_1" data-name="Слой 1"><circle class="cls-1" cx="32.5" cy="32.5" r="32"/><path class="cls-1" d="M35.71,20.16"/><circle class="cls-2" cx="47.25" cy="42.17" r="8"/><circle class="cls-2" cx="18.25" cy="42.17" r="8"/><path class="cls-3" d="M30.71,24.7H24.16a.51.51,0,0,0-.48.37L17.95,41.85c-.21.61.76.87,1,.27l4.31-12.64,1-3c.1-.28.22-.57.29-.86.14-.53-.13.09-.28.1,2.12-.15,4.31,0,6.43,0a.5.5,0,0,0,0-1Z"/><path class="cls-2" d="M39,26.66"/><path class="cls-3" d="M30.49,41.89l15.67-16.1a.51.51,0,0,0-.35-.85H38.47a.5.5,0,0,0,0,1h7.35l-.35-.85L29.79,41.18c-.45.46.26,1.17.71.71Z"/><path class="cls-3" d="M30,42.43H47.25a.51.51,0,0,0,.43-.75L41.46,30a.5.5,0,0,0-.43-.25H22.71a.5.5,0,0,0-.43.75L29.6,42.18c.34.54,1.21,0,.86-.5L23.14,30l-.43.75H40a3.76,3.76,0,0,1,1,0c-.44-.14-.35-.37-.14.17a34.57,34.57,0,0,0,2,3.69l4,7.55.43-.75H30A.5.5,0,0,0,30,42.43Z"/><rect class="cls-1" x="37.25" y="16.25" width="15.14" height="2.94" rx="1.46" ry="1.46"/><circle class="cls-1" cx="40.86" cy="10.57" r="4.41"/><path d="M39.75,11.36a2.52,2.52,0,0,1,2.49-2.49.5.5,0,0,0,0-1,3.53,3.53,0,0,0-3.49,3.49.5.5,0,0,0,1,0Z"/><rect class="cls-1" x="13.48" y="11.25" width="9.79" height="2.94" rx="1.46" ry="1.46"/><rect class="cls-1" x="6.25" y="19.17" width="15.14" height="2.94" rx="1.46" ry="1.46"/></g></g></svg>