<svg xmlns="http://www.w3.org/2000/svg" viewBox="0 0 65 65"><defs><style>.cls-1{fill:#ffe471;}.cls-2{fill:#01dadc;}.cls-3{fill:#ffd8a4;}.cls-4{fill:#a9fffd;}.cls-5{fill:none;stroke:#000;stroke-miterlimit:10;}</style></defs><title>Asset 25</title><g id="Layer_2" data-name="Layer 2"><g id="Layer_2-2" data-name="Layer 2"><circle class="cls-1" cx="21.79" cy="14.04" r="3.92"/><rect class="cls-2" x="32.19" y="11.15" width="12.73" height="2.94" rx="1.46" ry="1.46"/><rect class="cls-2" x="41.9" y="17.15" width="9.79" height="2.94" rx="1.46" ry="1.46"/><path class="cls-3" d="M50.58,36.17H15.79a5.35,5.35,0,0,0-5.34,5.34v3.79a5.35,5.35,0,0,0,5.34,5.34h.63a1.44,1.44,0,0,0,1.4-1.05,4.13,4.13,0,0,1,8,0,1.44,1.44,0,0,0,1.4,1.05h9.87a1.44,1.44,0,0,0,1.4-1.05,4.13,4.13,0,0,1,8,0,1.44,1.44,0,0,0,1.4,1.05h2.7a5.35,5.35,0,0,0,5.34-5.34V41.51A5.35,5.35,0,0,0,50.58,36.17Z"/><path class="cls-4" d="M46.59,34.57c0-.14,0-.29,0-.43,0-5.48-5.35-10-11.88-10H29.57c-6.54,0-11.88,4.48-11.88,10,0,.15,0,.29,0,.43Z"/></g><g id="Слой_1" data-name="Слой 1"><circle class="cls-5" cx="32.5" cy="32.5" r="32"/><circle class="cls-5" cx="21.82" cy="48.03" r="4.13"/><circle class="cls-5" cx="42.48" cy="48.03" r="4.13"/><path class="cls-5" d="M50.58,33.57H15.79a5.35,5.35,0,0,0-5.34,5.34v3.79A5.35,5.35,0,0,0,15.79,48h.63A1.44,1.44,0,0,0,17.82,47a4.13,4.13,0,0,1,8,0A1.44,1.44,0,0,0,27.21,48h9.87A1.44,1.44,0,0,0,38.48,47a4.13,4.13,0,0,1,8,0A1.44,1.44,0,0,0,47.88,48h2.7a5.35,5.35,0,0,0,5.34-5.34V38.91A5.35,5.35,0,0,0,50.58,33.57Z"/><path class="cls-5" d="M46.59,33.57c0-.17,0-.34,0-.52A11.92,11.92,0,0,0,34.73,21.17H29.57A11.92,11.92,0,0,0,17.68,33.05c0,.17,0,.34,0,.52Z"/><line class="cls-5" x1="34.22" y1="21.17" x2="34.22" y2="33.57"/><path class="cls-5" d="M35.25,36.67"/><path class="cls-5" d="M50.58,33.57h-.29a4.09,4.09,0,0,0-.57,2.07,4.13,4.13,0,0,0,4.13,4.13,4.09,4.09,0,0,0,2.07-.57v-.29A5.35,5.35,0,0,0,50.58,33.57Z"/><circle class="cls-5" cx="21.82" cy="48.03" r="2.07"/><circle class="cls-5" cx="42.48" cy="48.03" r="2.07"/><circle class="cls-5" cx="20.32" cy="12.57" r="4.41"/><path d="M19.21,13.36a2.52,2.52,0,0,1,2.49-2.49.5.5,0,0,0,0-1,3.53,3.53,0,0,0-3.49,3.49.5.5,0,0,0,1,0Z"/><rect class="cls-5" x="30.92" y="10.17" width="12.73" height="2.94" rx="1.46" ry="1.46"/><rect class="cls-5" x="40.92" y="16.17" width="9.79" height="2.94" rx="1.46" ry="1.46"/></g></g></svg>