<svg xmlns="http://www.w3.org/2000/svg" viewBox="0 0 65 65"><defs><style>.cls-1{fill:#ffd8a4;}.cls-2{fill:#a9fffd;}.cls-3{fill:none;stroke:#000;stroke-miterlimit:10;}</style></defs><title>Asset 27</title><g id="Layer_2" data-name="Layer 2"><g id="Layer_2-2" data-name="Layer 2"><circle class="cls-1" cx="36.42" cy="35" r="20.5"/><path class="cls-2" d="M32.06,12.5a.94.94,0,0,0-.86,1v13a1.88,1.88,0,0,1-1.71,2,1.88,1.88,0,0,1-1.71-2v-13a.87.87,0,1,0-1.71,0v13a1.88,1.88,0,0,1-1.71,2,1.88,1.88,0,0,1-1.71-2v-13a.87.87,0,1,0-1.71,0v13s0,7,4.29,7V57.31a2.06,2.06,0,0,0,1.88,2.19A2.06,2.06,0,0,0,29,57.31V33.47c4-.35,4-7,4-7v-13A.94.94,0,0,0,32.06,12.5Z"/><path class="cls-2" d="M43.17,11.5c-1.24,0-2.25,1.4-2.25,3.12V38.5h2.5V56.75a1.75,1.75,0,0,0,3.5,0V11.5Z"/></g><g id="Слой_1" data-name="Слой 1"><circle class="cls-3" cx="32.5" cy="32.5" r="32"/><path d="M51.38,27.63c4.25,13.61-6.58,27.73-21,26.27-15-1.52-22.56-18.74-14.49-31.15.35-.54-.51-1-.86-.5a21.25,21.25,0,0,0,6.44,29.66,21,21,0,0,0,30.9-24.54c-.19-.61-1.16-.35-1,.27Z"/><path class="cls-3" d="M30.06,10.5a.94.94,0,0,0-.86,1v13a1.88,1.88,0,0,1-1.71,2,1.88,1.88,0,0,1-1.71-2v-13a.87.87,0,1,0-1.71,0v13a1.88,1.88,0,0,1-1.71,2,1.88,1.88,0,0,1-1.71-2v-13a.87.87,0,1,0-1.71,0v13s0,7,4.29,7V55.31a2.06,2.06,0,0,0,1.88,2.19A2.06,2.06,0,0,0,27,55.31V31.47c4-.35,4-7,4-7v-13A.94.94,0,0,0,30.06,10.5Z"/><path class="cls-3" d="M41.17,10.5c-1.24,0-2.25,1.4-2.25,3.12V37.5h2.5V55.75a1.75,1.75,0,0,0,3.5,0V10.5Z"/></g></g></svg>