<svg xmlns="http://www.w3.org/2000/svg" viewBox="0 0 65 65"><defs><style>.cls-1{fill:#01dadc;}.cls-2{fill:#a9fffd;}.cls-3{fill:#ffd8a4;}.cls-4{fill:none;stroke:#000;stroke-miterlimit:10;}</style></defs><title>Asset 23</title><g id="Layer_2" data-name="Layer 2"><g id="Layer_2-2" data-name="Layer 2"><rect class="cls-1" x="23.11" y="8.15" width="15.14" height="2.94" rx="1.46" ry="1.46"/><rect class="cls-1" x="12.46" y="14.23" width="9.79" height="2.94" rx="1.46" ry="1.46"/><rect class="cls-1" x="45.23" y="13.23" width="9.79" height="2.94" rx="1.46" ry="1.46"/><path class="cls-2" d="M42,21.17s8,3,9,14a3.1,3.1,0,0,1,2,4c-1,3-8,5-11,8s-13,9-25,7,3-9,4-12,3-8,3-10,4-5,9-5S42,21.17,42,21.17Z"/><path class="cls-3" d="M47.1,36.17l4.15-2.64-.14-.05a17.22,17.22,0,0,0-5.42-11.63,9.79,9.79,0,0,0-2.5,6.51A9.91,9.91,0,0,0,47.1,36.17Z"/><path class="cls-3" d="M12.25,48.36a38.87,38.87,0,0,0,13.63.37,8.6,8.6,0,0,0-7.74-6.35c-2,1.77-5.19,3.95-6.4,5.87Z"/></g><g id="Слой_1" data-name="Слой 1"><circle class="cls-4" cx="32.5" cy="32.5" r="32"/><path d="M40.75,18.65c5.34,2.06,8.06,8.24,8.63,13.52a.53.53,0,0,0,.37.48,2.68,2.68,0,0,1,1.1,4.29c-1.06,1.41-3.06,2.29-4.57,3.12A54.13,54.13,0,0,0,39.16,45,30.63,30.63,0,0,1,16,50.68c-1.14-.19-3.58-.47-4.14-1.72-.48-1.08.67-2.22,1.34-2.93,1.58-1.65,3.5-2.93,5.21-4.44s2.2-3.09,3-5.34c.56-1.59,1.15-3.19,1.57-4.83s.29-2.94,1.46-4.1c3.29-3.22,8-1.78,11.72-4a16.63,16.63,0,0,0,5.13-4.95c.36-.53-.5-1-.86-.5a16.87,16.87,0,0,1-3,3.27,10.29,10.29,0,0,1-3.91,2.24c-1.62.43-3.33.24-5,.66A10.39,10.39,0,0,0,23.39,27c-1.25,1.42-1.09,3.31-1.61,5.05-.66,2.25-1.29,5.23-2.52,7.24A13.87,13.87,0,0,1,16,42.35c-1.67,1.35-5.58,3.78-5.18,6.4.5,3.32,7.14,3.27,9.4,3.31a32.65,32.65,0,0,0,15.64-3.78,24.86,24.86,0,0,0,4.65-3.06,38.63,38.63,0,0,1,6.62-4.46c2.48-1.38,7.59-4.32,4.74-7.82-.37-.46-1.21-.71-1.51-1.13A21,21,0,0,1,49.88,29a17.82,17.82,0,0,0-3-6.64A14,14,0,0,0,41,17.68C40.41,17.45,40.15,18.42,40.75,18.65Z"/><path class="cls-4" d="M49.88,32.17s-6,4-11,8-10,10-27,7"/><path class="cls-4" d="M49.88,32.17s-6,4-11,8-10,10-27,7"/><path d="M23.13,32.85a1.31,1.31,0,0,1,.21-.07,2.52,2.52,0,0,1,.56-.1,1.62,1.62,0,0,1,1.55,1c.3.57,1.17.06.86-.5A2.7,2.7,0,0,0,22.63,32c-.58.28-.07,1.15.5.86Z"/><path d="M22.13,35.85a1.31,1.31,0,0,1,.21-.07,2.52,2.52,0,0,1,.56-.1,1.62,1.62,0,0,1,1.55,1c.3.57,1.17.06.86-.5A2.7,2.7,0,0,0,21.63,35c-.58.28-.07,1.15.5.86Z"/><path d="M21.13,38.85a1.31,1.31,0,0,1,.21-.07,2.52,2.52,0,0,1,.56-.1,1.62,1.62,0,0,1,1.55,1c.3.57,1.17.06.86-.5A2.7,2.7,0,0,0,20.63,38c-.58.28-.07,1.15.5.86Z"/><rect class="cls-4" x="21.6" y="7.17" width="15.14" height="2.94" rx="1.46" ry="1.46"/><rect class="cls-4" x="11.48" y="13.25" width="9.79" height="2.94" rx="1.46" ry="1.46"/><rect class="cls-4" x="44.25" y="12.25" width="9.79" height="2.94" rx="1.46" ry="1.46"/><path d="M46.12,35.3l4.15-2.64a.51.51,0,0,0-.12-.91A25.57,25.57,0,0,0,49.61,28a18.21,18.21,0,0,0-1.21-3.06,16.84,16.84,0,0,0-3.58-4.74.5.5,0,0,0-.71,0,10.46,10.46,0,0,0,1.41,15c.49.41,1.2-.29.71-.71a9.8,9.8,0,0,1-3.73-6.69c-.11-1.26.62-6.64,2.13-6.45,1,.12,2.34,3,2.76,3.75a19.46,19.46,0,0,1,2,7,.53.53,0,0,0,.37.48l.14.05-.12-.91-4.15,2.64C45.07,34.78,45.57,35.64,46.12,35.3Z"/><path d="M12.12,47.65A41.7,41.7,0,0,0,26,48a.5.5,0,0,0,.35-.62,9.35,9.35,0,0,0-7.08-6.58c-1.67-.3-2.17.59-3.48,1.64a22.48,22.48,0,0,0-4.49,4.33.5.5,0,0,0,.3.73l.5.11c.63.15.89-.82.27-1l-.5-.11.3.73c1.24-1.76,4.35-5.09,6.48-5.39,3.19-.45,5.87,3.12,6.74,5.75l.35-.62a40.18,40.18,0,0,1-13.36-.37C11.75,46.58,11.48,47.54,12.12,47.65Z"/></g></g></svg>