<svg xmlns="http://www.w3.org/2000/svg" viewBox="0 0 65 65"><defs><style>.cls-1{fill:none;stroke:#000;stroke-miterlimit:10;}</style></defs><title>Asset 32</title><g id="Layer_2" data-name="Layer 2"><g id="Слой_1" data-name="Слой 1"><rect class="cls-1" x="43.58" y="25.37" width="16" height="5" rx="0.94" ry="0.94"/><circle class="cls-1" cx="32.5" cy="32.5" r="32"/><path class="cls-1" d="M10.86,26.71a2.88,2.88,0,0,1-2.25-4.54,19.77,19.77,0,0,1,32.63,0A2.88,2.88,0,0,1,39,26.71Z"/><rect class="cls-1" x="9.21" y="28.34" width="31.74" height="3.26" rx="1.63" ry="1.63"/><rect class="cls-1" x="7.58" y="42.99" width="35" height="4.88" rx="2.44" ry="2.44"/><path class="cls-1" d="M33.58,37.42h5.74A1.63,1.63,0,0,1,41,39h0a1.63,1.63,0,0,1-1.63,1.63H10.84A1.63,1.63,0,0,1,9.21,39h0a1.63,1.63,0,0,1,1.63-1.63H26.58"/><path class="cls-1" d="M9.21,33.22a1.84,1.84,0,0,0,1.55,2H25.49l3.58,5.61a1.17,1.17,0,0,0,2.08,0l3.58-5.61h4.68a1.84,1.84,0,0,0,1.55-2"/><path class="cls-1" d="M45.12,30.37l1.43,15.19a2.15,2.15,0,0,0,2.14,1.94h6.09a2.15,2.15,0,0,0,2.14-1.94l1.43-15.19Z"/></g></g></svg>