<svg xmlns="http://www.w3.org/2000/svg" viewBox="0 0 128 81"><defs><style>.cls-1{fill:#39d3b5;}.cls-2{fill:#016f8a;}</style></defs><title>Asset 9</title><g id="Layer_2" data-name="Layer 2"><g id="Слой_1" data-name="Слой 1"><rect class="cls-1" width="128" height="81"/><path class="cls-2" d="M79.5,41.89a42.21,42.21,0,0,1-4.75,20.24A34.27,34.27,0,0,1,61.2,76,40.09,40.09,0,0,1,41,81a39.3,39.3,0,0,1-15.57-3.17,39.16,39.16,0,0,1-21.3-21.3,39.83,39.83,0,0,1,0-31.14,39.16,39.16,0,0,1,21.3-21.3A39.3,39.3,0,0,1,41,.92,37.87,37.87,0,0,1,67.86,11.41L57,21.84a22,22,0,0,0-16-6.17,23.93,23.93,0,0,0-12.43,3.39A25.32,25.32,0,0,0,16.24,41a25.32,25.32,0,0,0,12.37,21.9A23.91,23.91,0,0,0,41,66.25,26.34,26.34,0,0,0,49.37,65a21.13,21.13,0,0,0,6.25-3.14,22.81,22.81,0,0,0,4.29-4.29A19.61,19.61,0,0,0,62.59,53a20.28,20.28,0,0,0,1.17-4H41V35.22h37.8A35.61,35.61,0,0,1,79.5,41.89Zm47.36-6.66V46.7H115.44V58.11H104V46.7H92.55V35.22H104V23.81h11.47V35.22Z"/></g></g></svg>