<svg xmlns="http://www.w3.org/2000/svg" viewBox="0 0 65 65"><defs><style>.cls-1{fill:none;}.cls-1,.cls-2{stroke:#000;stroke-miterlimit:10;}.cls-2{fill:#fff;}</style></defs><title>Asset 5</title><g id="Layer_2" data-name="Layer 2"><g id="Слой_1" data-name="Слой 1"><circle class="cls-1" cx="32.5" cy="32.5" r="32"/><circle class="cls-1" cx="32.5" cy="32.5" r="32"/><circle class="cls-1" cx="32.5" cy="32.5" r="32"/><circle class="cls-1" cx="32.5" cy="32.5" r="32"/><rect class="cls-1" x="47.73" y="39.58" width="9.79" height="2.94" rx="1.46" ry="1.46"/><path class="cls-1" d="M56.5,29.5h-14a2,2,0,0,1,0-4h10a2,2,0,0,0,0-4h-38a2,2,0,0,0,0,4h8a2,2,0,0,1,0,4h-4a2,2,0,0,0,0,4h38a2,2,0,0,0,0-4Z"/><rect class="cls-1" x="4.85" y="39.5" width="15.14" height="2.94" rx="1.46" ry="1.46"/><circle class="cls-1" cx="22.91" cy="13.91" r="4.41"/><path d="M21.8,14.7a2.52,2.52,0,0,1,2.49-2.49.5.5,0,0,0,0-1A3.53,3.53,0,0,0,20.8,14.7a.5.5,0,0,0,1,0Z"/><line class="cls-1" x1="32.5" y1="8.34" x2="32.5" y2="19.11"/><rect x="27.5" y="56.5" width="0.98" height="6"/><rect x="36.5" y="56.5" width="0.98" height="6"/><rect class="cls-2" x="30.5" y="19.5" width="4" height="9"/><path class="cls-1" d="M23.5,63.21a32,32,0,0,0,18,0V39.5h-18Z"/><path class="cls-1" d="M23.5,63.21a32,32,0,0,0,18,0V39.5h-18Z"/><path class="cls-2" d="M32.5,28.5a8,8,0,0,0-8,8v3h16v-3A8,8,0,0,0,32.5,28.5Z"/><circle class="cls-2" cx="32.5" cy="48.5" r="7"/><rect x="45.52" y="55.5" width="0.98" height="6"/><circle class="cls-2" cx="32.5" cy="48.5" r="4.5"/><rect x="31.75" y="45.5" width="0.75" height="3.75"/><rect x="31.75" y="48.5" width="3.75" height="0.75"/><path class="cls-1" d="M47.64,54.13a2.44,2.44,0,0,0,.3-1.18,2,2,0,1,0-3.89,0,2.44,2.44,0,0,0,.3,1.18,2.5,2.5,0,1,0,3.28,0Z"/><rect x="17.31" y="55.5" width="0.98" height="6"/><path class="cls-1" d="M19.82,52.88a3.14,3.14,0,0,0,.39-1.52,2.7,2.7,0,0,0-2.5-2.86,2.7,2.7,0,0,0-2.5,2.86,3.14,3.14,0,0,0,.39,1.52,3.21,3.21,0,1,0,4.22,0Z"/></g></g></svg>