<svg xmlns="http://www.w3.org/2000/svg" viewBox="0 0 65 65"><defs><style>.cls-1{fill:none;stroke:#000;stroke-miterlimit:10;}</style></defs><title>Asset 4</title><g id="Layer_2" data-name="Layer 2"><g id="Слой_1" data-name="Слой 1"><circle class="cls-1" cx="32.5" cy="32.5" r="32"/><circle class="cls-1" cx="32.5" cy="32.5" r="32"/><circle class="cls-1" cx="32.5" cy="32.5" r="32"/><path class="cls-1" d="M41.63,63.17a32,32,0,0,0,14.69-9.31V42.61L41.63,32.82Z"/><rect class="cls-1" x="50.45" y="29.88" width="9.79" height="2.94" rx="1.46" ry="1.46"/><rect class="cls-1" x="41.63" y="19.11" width="15.14" height="2.94" rx="1.46" ry="1.46"/><rect class="cls-1" x="8.34" y="17.15" width="15.14" height="2.94" rx="1.46" ry="1.46"/><path class="cls-1" d="M24,63.35a32,32,0,0,0,17.63-.18V26.94H24Z"/><path class="cls-1" d="M8.34,53.46A32,32,0,0,0,24,63.35V38.7H8.34Z"/><path class="cls-1" d="M8.34,53.46A32,32,0,0,0,24,63.35V38.7H8.34Z"/><circle class="cls-1" cx="45.91" cy="14.11" r="4.41"/><rect class="cls-1" x="25.96" y="23.03" width="13.71" height="3.92"/><path d="M44.8,14.9a2.52,2.52,0,0,1,2.49-2.49.5.5,0,0,0,0-1A3.53,3.53,0,0,0,43.8,14.9a.5.5,0,0,0,1,0Z"/><rect class="cls-1" x="28.9" y="19.11" width="7.84" height="3.92"/><line class="cls-1" x1="32.82" y1="8.34" x2="32.82" y2="19.11"/><line class="cls-1" x1="16.17" y1="24.98" x2="16.17" y2="35.76"/><rect class="cls-1" x="10.29" y="35.76" width="11.75" height="2.94"/><rect x="25.96" y="31.84" width="0.98" height="29.38"/><rect x="29.88" y="31.84" width="0.98" height="29.38"/><rect x="33.8" y="31.84" width="0.98" height="29.38"/><rect x="37.72" y="31.84" width="0.98" height="29.38"/><rect x="43.59" y="38.7" width="0.98" height="16.65"/><rect x="53.39" y="43.59" width="0.98" height="10.77"/><rect x="48.49" y="46.53" width="0.98" height="9.79"/><rect class="cls-1" x="10.29" y="41.63" width="11.75" height="1.96"/><rect class="cls-1" x="10.29" y="46.53" width="11.75" height="1.96"/><rect class="cls-1" x="10.29" y="51.43" width="11.75" height="1.96"/><path class="cls-1" d="M13.57,58.28H22v-2H11.18C11.94,57,12.74,57.67,13.57,58.28Z"/></g></g></svg>