<svg xmlns="http://www.w3.org/2000/svg" viewBox="0 0 126 126"><defs><style>.cls-1,.cls-2{fill:none;stroke:#fff;stroke-width:2px;}.cls-1{stroke-miterlimit:10;}.cls-2{stroke-linecap:round;stroke-linejoin:round;}</style></defs><title>Asset 3</title><g id="Layer_2" data-name="Layer 2"><g id="Слой_1" data-name="Слой 1"><circle class="cls-1" cx="63" cy="63" r="62"/><path class="cls-1" d="M60.08,27.35A13.59,13.59,0,0,0,46.49,40.93c0,.32,0,.64,0,1,0,0,0,0,0,.06a13.56,13.56,0,0,0,.8,3.71c3,8.55,12.73,15.4,12.73,15.4s9.76-6.85,12.73-15.4a13.57,13.57,0,0,0,.81-3.71v-.06c0-.32,0-.64,0-1A13.59,13.59,0,0,0,60.08,27.35Zm0,17.8a6.09,6.09,0,1,1,6.09-6.09A6.09,6.09,0,0,1,60.08,45.15Z"/><path class="cls-2" d="M74.59,40"/><line class="cls-2" x1="7.94" y1="57.2" x2="22.82" y2="57.2"/><line class="cls-2" x1="7.94" y1="64.14" x2="18.85" y2="64.14"/><line class="cls-2" x1="100.74" y1="56.85" x2="116.24" y2="56.85"/><line class="cls-2" x1="107.52" y1="64.94" x2="116.24" y2="64.94"/><polyline class="cls-2" points="53.27 63 53.27 91.09 31.96 97.88 31.96 38.78 40.68 36.4"/><polyline class="cls-2" points="74.59 57.19 74.59 97.88 53.27 91.09"/><polyline class="cls-2" points="79.43 37.46 95.9 32.97 95.9 92.06 74.59 97.88 74.59 54.28"/></g></g></svg>