<svg xmlns="http://www.w3.org/2000/svg" viewBox="0 0 65 65"><defs><style>.cls-1{fill:#01dadc;}.cls-2{fill:#a9fffd;}.cls-3{fill:none;stroke:#000;stroke-miterlimit:10;}.cls-4{fill:#ffe471;}</style></defs><title>Asset 30</title><g id="Layer_2" data-name="Layer 2"><g id="Layer_2-2" data-name="Layer 2"><path class="cls-1" d="M36.74,14.21H23a2,2,0,1,0,0,3.92H38.21a1.47,1.47,0,1,1,0,2.94h-4.9a1.47,1.47,0,1,0,0,2.94H56.82a1.47,1.47,0,0,0,0-2.94H50a1.47,1.47,0,0,1,0-2.94h4.41a2,2,0,0,0,0-3.92H47.51"/><path class="cls-2" d="M53.44,41.39a7.74,7.74,0,0,0-12.68,0l-4,5.93,2.07,3.31a2.51,2.51,0,0,0,.57-1.57v-.87a2.72,2.72,0,0,1,5.44,0,2.72,2.72,0,0,0,5.44,0v.3a2.72,2.72,0,0,1,5.44,0v1.44a2.62,2.62,0,0,0,1.9,2.47A28.38,28.38,0,0,0,59.26,50Z"/><path class="cls-2" d="M34.78,44.08l-6-9.51a9.67,9.67,0,0,0-16.54,0L4.47,47a3,3,0,0,0,3,2.44,3,3,0,0,0,3.08-2.94V42.61a3.08,3.08,0,0,1,6.16,0v2.94a3.08,3.08,0,0,0,6.16,0v-4.9a3.08,3.08,0,0,1,6.16,0v2a3,3,0,0,0,3.08,2.94A3.1,3.1,0,0,0,34.78,44.08Z"/><rect class="cls-1" x="50.45" y="27.92" width="9.79" height="2.94" rx="1.47" ry="1.47"/><rect class="cls-1" x="14.21" y="22.05" width="9.79" height="2.94" rx="1.47" ry="1.47"/></g><g id="Слой_1" data-name="Слой 1"><path class="cls-3" d="M34.5,11.71H52.41a2,2,0,0,1,0,3.92H48a1.47,1.47,0,1,0,0,2.94h6.86a1.47,1.47,0,1,1,0,2.94H31.35a1.47,1.47,0,0,1,0-2.94h4.9a1.47,1.47,0,1,0,0-2.94H21.07a2,2,0,0,1,0-3.92H34.78"/><rect class="cls-3" x="13.23" y="21.07" width="9.79" height="2.94" rx="1.47" ry="1.47"/><circle class="cls-3" cx="32.5" cy="32.5" r="32"/><circle class="cls-3" cx="32.5" cy="32.5" r="32"/><path class="cls-3" d="M32.5,64.5a31.88,31.88,0,0,0,12.72-2.63A10.77,10.77,0,0,0,44,59L27.67,31.63a9,9,0,0,0-15.78,0L3.4,45.82A32,32,0,0,0,32.5,64.5Z"/><path class="cls-3" d="M32.53,64.5a31.88,31.88,0,0,0,12.72-2.63A10.77,10.77,0,0,0,44.05,59L27.7,31.63a9,9,0,0,0-15.78,0L3.44,45.82A32,32,0,0,0,32.53,64.5Z"/><path class="cls-3" d="M33.39,41.14,27.7,31.63a9,9,0,0,0-15.78,0L4.47,44.09a2.93,2.93,0,0,0,5.83-.5V39.68a2.94,2.94,0,0,1,5.88,0v2.94a2.94,2.94,0,0,0,5.88,0v-4.9a2.94,2.94,0,1,1,5.88,0v2a2.93,2.93,0,0,0,5.47,1.46Z"/><path class="cls-3" d="M35.83,45.09l4.65-7.78a7.38,7.38,0,0,1,12.91,0l6.1,10.2a2.4,2.4,0,0,1-4.77-.41V43.89a2.4,2.4,0,1,0-4.81,0v2.4a2.4,2.4,0,0,1-4.81,0v-4a2.4,2.4,0,0,0-4.81,0v1.6a2.4,2.4,0,0,1-4.48,1.2Z"/><rect class="cls-3" x="49.47" y="25.56" width="9.79" height="2.94" rx="1.47" ry="1.47"/><circle class="cls-4" cx="42.61" cy="13.23" r="3.92"/><circle class="cls-3" cx="41.14" cy="11.76" r="4.41"/><path d="M39.2,12.25a2.46,2.46,0,0,1,2.44-2.44.5.5,0,0,0,0-1,3.48,3.48,0,0,0-3.44,3.44.5.5,0,0,0,1,0Z"/></g></g></svg>