<svg xmlns="http://www.w3.org/2000/svg" viewBox="0 0 65 65"><defs><style>.cls-1{fill:none;}.cls-1,.cls-2{stroke:#000;stroke-miterlimit:10;}.cls-2{fill:#fff;}</style></defs><title>Asset 14</title><g id="Layer_2" data-name="Layer 2"><g id="Слой_1" data-name="Слой 1"><path class="cls-1" d="M34.5,11.71H52.41a2,2,0,0,1,0,3.92H48a1.47,1.47,0,1,0,0,2.94h6.86a1.47,1.47,0,1,1,0,2.94H31.35a1.47,1.47,0,0,1,0-2.94h4.9a1.47,1.47,0,1,0,0-2.94H21.07a2,2,0,0,1,0-3.92H34.78"/><rect class="cls-1" x="13.23" y="21.07" width="9.79" height="2.94" rx="1.47" ry="1.47"/><circle class="cls-1" cx="32.5" cy="32.5" r="32"/><circle class="cls-1" cx="32.5" cy="32.5" r="32"/><path class="cls-1" d="M32.5,64.5a31.88,31.88,0,0,0,12.72-2.63A10.77,10.77,0,0,0,44,59L27.67,31.63a9,9,0,0,0-15.78,0L3.4,45.82A32,32,0,0,0,32.5,64.5Z"/><path class="cls-1" d="M32.53,64.5a31.88,31.88,0,0,0,12.72-2.63A10.77,10.77,0,0,0,44.05,59L27.7,31.63a9,9,0,0,0-15.78,0L3.44,45.82A32,32,0,0,0,32.53,64.5Z"/><path class="cls-1" d="M33.39,41.14,27.7,31.63a9,9,0,0,0-15.78,0L4.47,44.09a2.93,2.93,0,0,0,5.83-.5V39.68a2.94,2.94,0,0,1,5.88,0v2.94a2.94,2.94,0,0,0,5.88,0v-4.9a2.94,2.94,0,1,1,5.88,0v2a2.93,2.93,0,0,0,5.47,1.46Z"/><path class="cls-1" d="M35.83,45.09l4.65-7.78a7.38,7.38,0,0,1,12.91,0l6.1,10.2a2.4,2.4,0,0,1-4.77-.41V43.89a2.4,2.4,0,1,0-4.81,0v2.4a2.4,2.4,0,0,1-4.81,0v-4a2.4,2.4,0,0,0-4.81,0v1.6a2.4,2.4,0,0,1-4.48,1.2Z"/><rect class="cls-1" x="49.47" y="25.56" width="9.79" height="2.94" rx="1.47" ry="1.47"/><circle class="cls-2" cx="41.14" cy="11.76" r="4.41"/><path d="M39.2,12.25a2.46,2.46,0,0,1,2.44-2.44.5.5,0,0,0,0-1,3.48,3.48,0,0,0-3.44,3.44.5.5,0,0,0,1,0Z"/></g></g></svg>