<svg id="Слой_1" data-name="Слой 1" xmlns="http://www.w3.org/2000/svg" viewBox="0 0 128 128"><defs><style>.cls-1{fill:none;stroke-linecap:round;stroke-linejoin:round;stroke-width:2px;}.cls-1,.cls-2{stroke:#fff;}.cls-2{font-size:11.72px;fill:#1d1d1b;stroke-miterlimit:10;font-family:OpenSans, Open Sans;letter-spacing:0.08em;}</style></defs><title>Монтажная область 4</title><circle class="cls-1" cx="86.57" cy="67.88" r="2.91"/><circle class="cls-1" cx="63.65" cy="64" r="62"/><path class="cls-1" d="M100.55,84.83c0,4.55-16.48,8.23-36.81,8.23s-36.81-3.69-36.81-8.23"/><line class="cls-1" x1="26.92" y1="49.95" x2="26.92" y2="84.83"/><line class="cls-1" x1="100.55" y1="49.95" x2="100.55" y2="84.83"/><path class="cls-1" d="M47.27,49.47V42.59C35.21,43.94,26.92,46.73,26.92,50c0,4.55,16.48,8.23,36.81,8.23S100.55,54.5,100.55,50c0-3.39-9.18-6.31-22.28-7.57v7.08"/><polyline class="cls-1" points="46.3 85.31 58.89 72.72 71.48 85.31"/><polyline class="cls-1" points="69.55 76.59 74.39 71.75 82.14 79.5"/><path class="cls-1" d="M44.36,74.77c-12.5-1.94-22.22-5.61-26.57-10.13"/><path class="cls-1" d="M45.33,66.16A88.51,88.51,0,0,1,31.77,63"/><path class="cls-1" d="M112.46,71.75C109,76.21,100.38,80,88.92,82.17"/><text class="cls-2" transform="translate(50.47 38.24)">360°</text></svg>