<svg id="Слой_1" data-name="Слой 1" xmlns="http://www.w3.org/2000/svg" viewBox="0 0 69 66"><defs><style>.cls-1,.cls-2{fill:none;stroke:#fff;stroke-width:2px;}.cls-1{stroke-miterlimit:10;}.cls-2{stroke-linecap:round;stroke-linejoin:round;}</style></defs><title>Монтажная область 1</title><path class="cls-1" d="M33.4,55.72l-17,9a2.37,2.37,0,0,1-3.44-2.5l3.25-19a2.37,2.37,0,0,0-.68-2.1L1.72,27.68a2.37,2.37,0,0,1,1.31-4l19-2.77a2.37,2.37,0,0,0,1.79-1.3L32.37,2.32a2.37,2.37,0,0,1,4.25,0l8.52,17.25a2.37,2.37,0,0,0,1.79,1.3l19,2.77a2.37,2.37,0,0,1,1.31,4L53.5,41.11a2.37,2.37,0,0,0-.68,2.1l3.25,19a2.37,2.37,0,0,1-3.44,2.5l-17-9A2.37,2.37,0,0,0,33.4,55.72Z"/><line class="cls-2" x1="13.66" y1="28.1" x2="21.77" y2="36.2"/></svg>