<svg id="Слой_1" data-name="Слой 1" xmlns="http://www.w3.org/2000/svg" viewBox="0 0 66.65 61"><defs><style>.cls-1{fill:none;stroke:#fff;stroke-linecap:round;stroke-linejoin:round;stroke-width:2px;}</style></defs><title>Монтажная область 2</title><path class="cls-1" d="M25.06,33.33c-1.74-3.39-6-7.12-11.22-7.05s-9.46,4-11.11,7.39c-3.39,7,.68,17.95,11.22,25.66C24.59,51.35,28.58,40.22,25.06,33.33Zm-12-.11a4.83,4.83,0,1,1-4,4.75"/><path class="cls-1" d="M64.4,6.33a9.26,9.26,0,0,0-7.94-5A9.34,9.34,0,0,0,48.6,6.57c-2.4,5,.48,12.7,7.94,18.16C64.07,19.08,66.89,11.2,64.4,6.33Zm-8.47-.07a3.42,3.42,0,1,1-2.82,3.36"/><path class="cls-1" d="M40.26,35.46H49c7,0,12.7,4.76,12.7,10.59v.3c0,5.82-5.72,10.59-12.7,10.59H24.16"/><path class="cls-1" d="M48.85,35.46H36.27a6.76,6.76,0,0,1-6.74-6.74h0A6.76,6.76,0,0,1,36.27,22H47.78"/></svg>