<svg id="Слой_1" data-name="Слой 1" xmlns="http://www.w3.org/2000/svg" viewBox="0 0 69 66"><defs><style>.cls-1{fill:#01dadc;}.cls-2{fill:#fff;}</style></defs><title>Монтажная область 1</title><path class="cls-1" d="M33.4,55.72l-17,9a2.37,2.37,0,0,1-3.44-2.5l3.25-19a2.37,2.37,0,0,0-.68-2.1L1.72,27.68a2.37,2.37,0,0,1,1.31-4l19-2.77a2.37,2.37,0,0,0,1.79-1.3L32.37,2.32a2.37,2.37,0,0,1,4.25,0l8.52,17.25a2.37,2.37,0,0,0,1.79,1.3l19,2.77a2.37,2.37,0,0,1,1.31,4L53.5,41.11a2.37,2.37,0,0,0-.68,2.1l3.25,19a2.37,2.37,0,0,1-3.44,2.5l-17-9A2.37,2.37,0,0,0,33.4,55.72Z"/><line class="cls-1" x1="13.66" y1="28.1" x2="21.77" y2="36.2"/><path class="cls-2" d="M13,28.8l8.1,8.1a1,1,0,0,0,1.41-1.41l-8.1-8.1A1,1,0,0,0,13,28.8Z"/></svg>