<svg xmlns="http://www.w3.org/2000/svg" viewBox="0 0 127 127"><defs><style>.cls-1{fill:none;stroke:#fff;stroke-linecap:round;stroke-linejoin:round;stroke-width:2px;}</style></defs><title>Asset 2</title><g id="Layer_2" data-name="Layer 2"><g id="Слой_1" data-name="Слой 1"><circle class="cls-1" cx="63.5" cy="63.5" r="62.5"/><line class="cls-1" x1="94.41" y1="41.04" x2="109.06" y2="41.04"/><line class="cls-1" x1="106.52" y1="47.27" x2="118.42" y2="47.27"/><line class="cls-1" x1="8.47" y1="67.41" x2="26.05" y2="67.41"/><line class="cls-1" x1="23.12" y1="74.24" x2="36.79" y2="74.24"/><path class="cls-1" d="M75.26,81.54a41,41,0,0,1,7.74-15,27.22,27.22,0,1,0-39.42,0s7.32,7.22,10.16,15Z"/><path class="cls-1" d="M76.76,55.69a27.33,27.33,0,0,0-.65-19.53"/><path class="cls-1" d="M67.39,80.84a41,41,0,0,1,5-16.13q.4-.6.76-1.22"/><path class="cls-1" d="M57.56,99.63c0,1.61.8,2.93,1.78,2.93H69.44c1,0,1.78-1.32,1.78-2.93V94.75H57.56Z"/><line class="cls-1" x1="53.74" y1="81.53" x2="57.56" y2="94.75"/><line class="cls-1" x1="75.26" y1="81.54" x2="71.23" y2="94.75"/><path class="cls-1" d="M53.86,31A24.64,24.64,0,0,1,59.57,26"/><path class="cls-1" d="M53.7,62.66a25,25,0,0,1-5.1-22.46"/></g></g></svg>