<svg id="Слой_1" data-name="Слой 1" xmlns="http://www.w3.org/2000/svg" viewBox="0 0 128 128"><defs><style>.cls-1{fill:none;stroke:#fff;stroke-linecap:round;stroke-linejoin:round;stroke-width:2px;}</style></defs><title>Монтажная область 2</title><circle class="cls-1" cx="63.81" cy="64.5" r="63.5"/><line class="cls-1" x1="95.21" y1="41.68" x2="110.1" y2="41.68"/><line class="cls-1" x1="107.51" y1="48.01" x2="119.61" y2="48.01"/><line class="cls-1" x1="7.9" y1="68.47" x2="25.76" y2="68.47"/><line class="cls-1" x1="22.78" y1="75.41" x2="36.67" y2="75.41"/><path class="cls-1" d="M75.76,82.82a41.7,41.7,0,0,1,7.86-15.26,27.65,27.65,0,1,0-40,0S51,74.9,53.89,82.82Z"/><path class="cls-1" d="M77.28,56.56a27.76,27.76,0,0,0-.66-19.84"/><path class="cls-1" d="M67.76,82.12a41.7,41.7,0,0,1,5.11-16.39q.4-.61.78-1.24"/><path class="cls-1" d="M57.77,101.21c0,1.64.82,3,1.81,3H69.85c1,0,1.81-1.34,1.81-3v-5H57.77Z"/><line class="cls-1" x1="53.89" y1="82.82" x2="57.77" y2="96.25"/><line class="cls-1" x1="75.76" y1="82.82" x2="71.66" y2="96.25"/><path class="cls-1" d="M54,31.43a25,25,0,0,1,5.8-5"/><path class="cls-1" d="M53.85,63.64a25.35,25.35,0,0,1-5.18-22.82"/></svg>