<svg id="Слой_1" data-name="Слой 1" xmlns="http://www.w3.org/2000/svg" viewBox="0 0 128 128"><defs><style>.cls-1,.cls-2{fill:none;stroke:#fff;stroke-width:2px;}.cls-1{stroke-miterlimit:10;}.cls-2{stroke-linecap:round;stroke-linejoin:round;}</style></defs><title>Монтажная область 1</title><circle class="cls-1" cx="64.48" cy="64.52" r="61.52"/><path class="cls-2" d="M47.53,81.47H31.06a2.91,2.91,0,0,1-2.91-2.91v-31a2.91,2.91,0,0,1,2.91-2.91H96a2.91,2.91,0,0,1,2.91,2.91v31A2.91,2.91,0,0,1,96,81.47H80.47"/><path class="cls-2" d="M102.75,38.85H24.27a2.91,2.91,0,0,0-2.91,2.91v43.6a2.91,2.91,0,0,0,2.91,2.91H50.67l7.52-13a5.93,5.93,0,0,1,10.27,0l7.52,13h26.78a2.91,2.91,0,0,0,2.91-2.91V41.75A2.91,2.91,0,0,0,102.75,38.85Z"/><circle class="cls-2" cx="43.65" cy="64.04" r="9.69"/><path class="cls-2" d="M37.84,66a7.75,7.75,0,0,1,7.75-7.75"/><path class="cls-2" d="M76.59,66a7.75,7.75,0,0,1,7.75-7.75"/><circle class="cls-2" cx="82.4" cy="64.04" r="9.69"/></svg>