<svg xmlns="http://www.w3.org/2000/svg" viewBox="0 0 65 65"><defs><style>.cls-1{fill:#01dadc;}.cls-2{fill:#ffe471;}.cls-3{fill:#a9fffd;}.cls-4{fill:none;stroke:#000;stroke-miterlimit:10;}</style></defs><title>Asset 26</title><g id="Layer_2" data-name="Layer 2"><g id="Layer_2-2" data-name="Layer 2"><rect class="cls-1" x="8.86" y="21.48" width="12.73" height="2.94" rx="1.46" ry="1.46"/><rect class="cls-1" x="42.45" y="18.56" width="15.14" height="2.94" rx="1.46" ry="1.46"/><circle class="cls-2" cx="46.67" cy="13.38" r="3.92"/><rect class="cls-1" x="18.79" y="15.48" width="9.79" height="2.94" rx="1.46" ry="1.46"/><path class="cls-1" d="M47.18,55.5H17.93a.55.55,0,0,1-.49-.3l-4.8-9.6a.55.55,0,0,1,.49-.79H52a.55.55,0,0,1,.49.79l-4.8,9.6A.55.55,0,0,1,47.18,55.5Z"/><polygon class="cls-3" points="34.43 41.5 34.43 17.71 48.58 41.5 34.43 41.5"/><polygon class="cls-3" points="32.1 41.35 32.1 26.31 21.16 41.35 32.1 41.35"/></g><g id="Слой_1" data-name="Слой 1"><rect class="cls-4" x="17.81" y="14.5" width="9.79" height="2.94" rx="1.46" ry="1.46"/><circle class="cls-4" cx="32.5" cy="32.5" r="32"/><path d="M33.53,40.29V16.5l-.93.25L46.75,40.54l.43-.75H33a.5.5,0,0,0,0,1H47.18a.5.5,0,0,0,.43-.75L33.46,16.25a.5.5,0,0,0-.93.25V40.29A.5.5,0,0,0,33.53,40.29Z"/><path d="M31.2,40.14v-15a.5.5,0,0,0-.93-.25l-10.94,15a.5.5,0,0,0,.43.75H30.7a.5.5,0,0,0,0-1H19.76l.43.75,10.94-15-.93-.25v15A.5.5,0,0,0,31.2,40.14Z"/><path class="cls-4" d="M47.18,53.14H17.93a.55.55,0,0,1-.49-.3l-4.8-9.6a.55.55,0,0,1,.49-.79H52a.55.55,0,0,1,.49.79l-4.8,9.6A.55.55,0,0,1,47.18,53.14Z"/><rect class="cls-4" x="7.58" y="20.5" width="12.73" height="2.94" rx="1.46" ry="1.46"/><rect class="cls-4" x="40.93" y="17.58" width="15.14" height="2.94" rx="1.46" ry="1.46"/><circle class="cls-4" cx="45.2" cy="11.91" r="4.41"/><path d="M44.09,12.7a2.52,2.52,0,0,1,2.49-2.49.5.5,0,0,0,0-1,3.53,3.53,0,0,0-3.49,3.49.5.5,0,0,0,1,0Z"/><path d="M15.08,30.5a1.5,1.5,0,0,1,3,0c0,.64,1,.64,1,0a2.5,2.5,0,0,0-5,0c0,.64,1,.64,1,0Z"/><path d="M11.08,30.5a1.5,1.5,0,0,1,3,0c0,.64,1,.64,1,0a2.5,2.5,0,0,0-5,0c0,.64,1,.64,1,0Z"/><path d="M54.08,32.5a1.5,1.5,0,0,1,3,0c0,.64,1,.64,1,0a2.5,2.5,0,0,0-5,0c0,.64,1,.64,1,0Z"/><path d="M50.08,32.5a1.5,1.5,0,0,1,3,0c0,.64,1,.64,1,0a2.5,2.5,0,0,0-5,0c0,.64,1,.64,1,0Z"/></g></g></svg>